<mxfile host="app.diagrams.net" modified="2024-03-12T20:04:12.810Z" agent="Mozilla/5.0 (Windows NT 10.0; Win64; x64) AppleWebKit/537.36 (KHTML, like Gecko) Chrome/122.0.0.0 Safari/537.36" etag="URqGLqOEXFEn8yxCLP9z" version="24.0.5" type="github">
  <diagram id="R2lEEEUBdFMjLlhIrx00" name="Page-1">
    <mxGraphModel dx="2284" dy="746" grid="1" gridSize="10" guides="1" tooltips="1" connect="1" arrows="1" fold="1" page="1" pageScale="1" pageWidth="850" pageHeight="1100" math="0" shadow="0" extFonts="Permanent Marker^https://fonts.googleapis.com/css?family=Permanent+Marker">
      <root>
        <mxCell id="0" />
        <mxCell id="1" parent="0" />
        <mxCell id="AYHpRo52h9jCzfwv4n32-9" value="" style="endArrow=none;html=1;rounded=0;entryX=0;entryY=0;entryDx=0;entryDy=0;exitX=0.5;exitY=1;exitDx=0;exitDy=0;" edge="1" parent="1" target="AYHpRo52h9jCzfwv4n32-36">
          <mxGeometry relative="1" as="geometry">
            <mxPoint x="360" y="40" as="sourcePoint" />
            <mxPoint x="392.96000000000004" y="98.98000000000002" as="targetPoint" />
          </mxGeometry>
        </mxCell>
        <mxCell id="AYHpRo52h9jCzfwv4n32-12" value="" style="endArrow=none;html=1;rounded=0;exitX=0.5;exitY=1;exitDx=0;exitDy=0;entryX=1;entryY=0;entryDx=0;entryDy=0;" edge="1" parent="1" source="AYHpRo52h9jCzfwv4n32-14" target="AYHpRo52h9jCzfwv4n32-36">
          <mxGeometry relative="1" as="geometry">
            <mxPoint x="494" y="51" as="sourcePoint" />
            <mxPoint x="500" y="100" as="targetPoint" />
          </mxGeometry>
        </mxCell>
        <mxCell id="AYHpRo52h9jCzfwv4n32-14" value="Número" style="ellipse;whiteSpace=wrap;html=1;align=center;fontStyle=4;" vertex="1" parent="1">
          <mxGeometry x="500" width="100" height="40" as="geometry" />
        </mxCell>
        <mxCell id="AYHpRo52h9jCzfwv4n32-16" value="Nome" style="ellipse;whiteSpace=wrap;html=1;align=center;" vertex="1" parent="1">
          <mxGeometry x="310" width="100" height="40" as="geometry" />
        </mxCell>
        <mxCell id="AYHpRo52h9jCzfwv4n32-80" style="edgeStyle=orthogonalEdgeStyle;rounded=0;orthogonalLoop=1;jettySize=auto;html=1;exitX=1;exitY=0.5;exitDx=0;exitDy=0;" edge="1" parent="1" source="AYHpRo52h9jCzfwv4n32-17">
          <mxGeometry relative="1" as="geometry">
            <mxPoint x="260" y="340" as="targetPoint" />
          </mxGeometry>
        </mxCell>
        <mxCell id="AYHpRo52h9jCzfwv4n32-17" value="Empregado" style="whiteSpace=wrap;html=1;align=center;" vertex="1" parent="1">
          <mxGeometry x="160" y="320" width="100" height="40" as="geometry" />
        </mxCell>
        <mxCell id="AYHpRo52h9jCzfwv4n32-18" value="CPF" style="ellipse;whiteSpace=wrap;html=1;align=center;fontStyle=4;" vertex="1" parent="1">
          <mxGeometry x="300" y="550" width="100" height="40" as="geometry" />
        </mxCell>
        <mxCell id="AYHpRo52h9jCzfwv4n32-19" value="Sexo" style="ellipse;whiteSpace=wrap;html=1;align=center;" vertex="1" parent="1">
          <mxGeometry x="140" y="490" width="100" height="40" as="geometry" />
        </mxCell>
        <mxCell id="AYHpRo52h9jCzfwv4n32-20" value="Salário" style="ellipse;whiteSpace=wrap;html=1;align=center;" vertex="1" parent="1">
          <mxGeometry x="40" y="430" width="100" height="40" as="geometry" />
        </mxCell>
        <mxCell id="AYHpRo52h9jCzfwv4n32-21" value="Nome" style="ellipse;whiteSpace=wrap;html=1;align=center;" vertex="1" parent="1">
          <mxGeometry x="70" y="570" width="100" height="40" as="geometry" />
        </mxCell>
        <mxCell id="AYHpRo52h9jCzfwv4n32-22" value="Endereço" style="ellipse;whiteSpace=wrap;html=1;align=center;" vertex="1" parent="1">
          <mxGeometry x="190" y="580" width="100" height="40" as="geometry" />
        </mxCell>
        <mxCell id="AYHpRo52h9jCzfwv4n32-23" value="DataNasc" style="ellipse;whiteSpace=wrap;html=1;align=center;" vertex="1" parent="1">
          <mxGeometry x="310" y="420" width="100" height="40" as="geometry" />
        </mxCell>
        <mxCell id="AYHpRo52h9jCzfwv4n32-26" value="" style="endArrow=none;html=1;rounded=0;exitX=0.57;exitY=-0.025;exitDx=0;exitDy=0;entryX=0.11;entryY=1;entryDx=0;entryDy=0;entryPerimeter=0;exitPerimeter=0;" edge="1" parent="1" source="AYHpRo52h9jCzfwv4n32-21" target="AYHpRo52h9jCzfwv4n32-17">
          <mxGeometry relative="1" as="geometry">
            <mxPoint x="290" y="70" as="sourcePoint" />
            <mxPoint x="140" y="320" as="targetPoint" />
          </mxGeometry>
        </mxCell>
        <mxCell id="AYHpRo52h9jCzfwv4n32-28" value="" style="endArrow=none;html=1;rounded=0;exitX=0.7;exitY=0;exitDx=0;exitDy=0;entryX=0;entryY=1;entryDx=0;entryDy=0;exitPerimeter=0;" edge="1" parent="1" source="AYHpRo52h9jCzfwv4n32-20" target="AYHpRo52h9jCzfwv4n32-17">
          <mxGeometry relative="1" as="geometry">
            <mxPoint x="60" y="280" as="sourcePoint" />
            <mxPoint x="160" y="340" as="targetPoint" />
          </mxGeometry>
        </mxCell>
        <mxCell id="AYHpRo52h9jCzfwv4n32-29" value="" style="endArrow=none;html=1;rounded=0;exitX=0.37;exitY=-0.05;exitDx=0;exitDy=0;exitPerimeter=0;entryX=0.89;entryY=1.125;entryDx=0;entryDy=0;entryPerimeter=0;" edge="1" parent="1" source="AYHpRo52h9jCzfwv4n32-18" target="AYHpRo52h9jCzfwv4n32-17">
          <mxGeometry relative="1" as="geometry">
            <mxPoint x="70" y="290" as="sourcePoint" />
            <mxPoint x="203" y="318" as="targetPoint" />
          </mxGeometry>
        </mxCell>
        <mxCell id="AYHpRo52h9jCzfwv4n32-30" value="" style="endArrow=none;html=1;rounded=0;exitX=0.5;exitY=0;exitDx=0;exitDy=0;entryX=0.5;entryY=1;entryDx=0;entryDy=0;" edge="1" parent="1" source="AYHpRo52h9jCzfwv4n32-19" target="AYHpRo52h9jCzfwv4n32-17">
          <mxGeometry relative="1" as="geometry">
            <mxPoint x="80" y="300" as="sourcePoint" />
            <mxPoint x="180" y="360" as="targetPoint" />
          </mxGeometry>
        </mxCell>
        <mxCell id="AYHpRo52h9jCzfwv4n32-31" value="" style="endArrow=none;html=1;rounded=0;exitX=0;exitY=0;exitDx=0;exitDy=0;entryX=1;entryY=1;entryDx=0;entryDy=0;" edge="1" parent="1" source="AYHpRo52h9jCzfwv4n32-23" target="AYHpRo52h9jCzfwv4n32-17">
          <mxGeometry relative="1" as="geometry">
            <mxPoint x="90" y="310" as="sourcePoint" />
            <mxPoint x="190" y="370" as="targetPoint" />
          </mxGeometry>
        </mxCell>
        <mxCell id="AYHpRo52h9jCzfwv4n32-32" value="" style="endArrow=none;html=1;rounded=0;exitX=0.5;exitY=0;exitDx=0;exitDy=0;entryX=0.84;entryY=1.075;entryDx=0;entryDy=0;entryPerimeter=0;" edge="1" parent="1" source="AYHpRo52h9jCzfwv4n32-22" target="AYHpRo52h9jCzfwv4n32-17">
          <mxGeometry relative="1" as="geometry">
            <mxPoint x="100" y="320" as="sourcePoint" />
            <mxPoint x="200" y="380" as="targetPoint" />
          </mxGeometry>
        </mxCell>
        <mxCell id="AYHpRo52h9jCzfwv4n32-35" value="Projetos" style="whiteSpace=wrap;html=1;align=center;" vertex="1" parent="1">
          <mxGeometry x="980" y="340" width="100" height="40" as="geometry" />
        </mxCell>
        <mxCell id="AYHpRo52h9jCzfwv4n32-36" value="Departamentos" style="whiteSpace=wrap;html=1;align=center;" vertex="1" parent="1">
          <mxGeometry x="400" y="110" width="100" height="40" as="geometry" />
        </mxCell>
        <mxCell id="AYHpRo52h9jCzfwv4n32-37" value="Nome" style="ellipse;whiteSpace=wrap;html=1;align=center;" vertex="1" parent="1">
          <mxGeometry x="1070" y="480" width="100" height="40" as="geometry" />
        </mxCell>
        <mxCell id="AYHpRo52h9jCzfwv4n32-39" value="Número" style="ellipse;whiteSpace=wrap;html=1;align=center;fontStyle=4;" vertex="1" parent="1">
          <mxGeometry x="790" y="490" width="100" height="40" as="geometry" />
        </mxCell>
        <mxCell id="AYHpRo52h9jCzfwv4n32-40" value="" style="endArrow=none;html=1;rounded=0;exitX=0.78;exitY=-0.05;exitDx=0;exitDy=0;entryX=0;entryY=1;entryDx=0;entryDy=0;exitPerimeter=0;" edge="1" parent="1" source="AYHpRo52h9jCzfwv4n32-39" target="AYHpRo52h9jCzfwv4n32-35">
          <mxGeometry relative="1" as="geometry">
            <mxPoint x="948" y="471" as="sourcePoint" />
            <mxPoint x="583" y="340" as="targetPoint" />
          </mxGeometry>
        </mxCell>
        <mxCell id="AYHpRo52h9jCzfwv4n32-41" value="" style="endArrow=none;html=1;rounded=0;exitX=0.36;exitY=-0.025;exitDx=0;exitDy=0;entryX=1;entryY=1;entryDx=0;entryDy=0;exitPerimeter=0;" edge="1" parent="1" source="AYHpRo52h9jCzfwv4n32-37" target="AYHpRo52h9jCzfwv4n32-35">
          <mxGeometry relative="1" as="geometry">
            <mxPoint x="950" y="302" as="sourcePoint" />
            <mxPoint x="990" y="342" as="targetPoint" />
            <Array as="points" />
          </mxGeometry>
        </mxCell>
        <mxCell id="AYHpRo52h9jCzfwv4n32-42" value="Dependentes" style="whiteSpace=wrap;html=1;align=center;" vertex="1" parent="1">
          <mxGeometry x="-240" y="320" width="100" height="40" as="geometry" />
        </mxCell>
        <mxCell id="AYHpRo52h9jCzfwv4n32-43" value="Nome" style="ellipse;whiteSpace=wrap;html=1;align=center;" vertex="1" parent="1">
          <mxGeometry x="-280" y="210" width="100" height="40" as="geometry" />
        </mxCell>
        <mxCell id="AYHpRo52h9jCzfwv4n32-44" value="Sexo" style="ellipse;whiteSpace=wrap;html=1;align=center;" vertex="1" parent="1">
          <mxGeometry x="-280" y="430" width="100" height="40" as="geometry" />
        </mxCell>
        <mxCell id="AYHpRo52h9jCzfwv4n32-45" value="DataNasc" style="ellipse;whiteSpace=wrap;html=1;align=center;" vertex="1" parent="1">
          <mxGeometry x="-160" y="430" width="100" height="40" as="geometry" />
        </mxCell>
        <mxCell id="AYHpRo52h9jCzfwv4n32-46" value="" style="endArrow=none;html=1;rounded=0;exitX=0.5;exitY=0;exitDx=0;exitDy=0;entryX=1;entryY=1;entryDx=0;entryDy=0;" edge="1" parent="1" source="AYHpRo52h9jCzfwv4n32-45" target="AYHpRo52h9jCzfwv4n32-42">
          <mxGeometry relative="1" as="geometry">
            <mxPoint x="60" y="280" as="sourcePoint" />
            <mxPoint x="160" y="340" as="targetPoint" />
          </mxGeometry>
        </mxCell>
        <mxCell id="AYHpRo52h9jCzfwv4n32-47" value="" style="endArrow=none;html=1;rounded=0;exitX=0.5;exitY=0;exitDx=0;exitDy=0;entryX=0;entryY=1;entryDx=0;entryDy=0;" edge="1" parent="1" source="AYHpRo52h9jCzfwv4n32-44" target="AYHpRo52h9jCzfwv4n32-42">
          <mxGeometry relative="1" as="geometry">
            <mxPoint x="-100" y="440" as="sourcePoint" />
            <mxPoint x="-130" y="370" as="targetPoint" />
          </mxGeometry>
        </mxCell>
        <mxCell id="AYHpRo52h9jCzfwv4n32-48" value="" style="endArrow=none;html=1;rounded=0;exitX=0;exitY=0;exitDx=0;exitDy=0;entryX=0.5;entryY=1;entryDx=0;entryDy=0;" edge="1" parent="1" source="AYHpRo52h9jCzfwv4n32-42" target="AYHpRo52h9jCzfwv4n32-43">
          <mxGeometry relative="1" as="geometry">
            <mxPoint x="-90" y="450" as="sourcePoint" />
            <mxPoint x="-120" y="380" as="targetPoint" />
          </mxGeometry>
        </mxCell>
        <mxCell id="AYHpRo52h9jCzfwv4n32-49" value="id" style="ellipse;whiteSpace=wrap;html=1;align=center;fontStyle=4;" vertex="1" parent="1">
          <mxGeometry x="-160" y="200" width="100" height="40" as="geometry" />
        </mxCell>
        <mxCell id="AYHpRo52h9jCzfwv4n32-51" value="" style="endArrow=none;html=1;rounded=0;exitX=1;exitY=0;exitDx=0;exitDy=0;entryX=0.4;entryY=1.075;entryDx=0;entryDy=0;entryPerimeter=0;" edge="1" parent="1" source="AYHpRo52h9jCzfwv4n32-42" target="AYHpRo52h9jCzfwv4n32-49">
          <mxGeometry relative="1" as="geometry">
            <mxPoint x="-230" y="330" as="sourcePoint" />
            <mxPoint x="-220" y="260" as="targetPoint" />
          </mxGeometry>
        </mxCell>
        <mxCell id="AYHpRo52h9jCzfwv4n32-52" value="Possui&lt;span style=&quot;color: rgba(0, 0, 0, 0); font-family: monospace; font-size: 0px; text-align: start; text-wrap: nowrap;&quot;&gt;%3CmxGraphModel%3E%3Croot%3E%3CmxCell%20id%3D%220%22%2F%3E%3CmxCell%20id%3D%221%22%20parent%3D%220%22%2F%3E%3CmxCell%20id%3D%222%22%20value%3D%22%22%20style%3D%22endArrow%3Dnone%3Bhtml%3D1%3Brounded%3D0%3BexitX%3D0%3BexitY%3D0%3BexitDx%3D0%3BexitDy%3D0%3BentryX%3D0.5%3BentryY%3D1%3BentryDx%3D0%3BentryDy%3D0%3B%22%20edge%3D%221%22%20parent%3D%221%22%3E%3CmxGeometry%20relative%3D%221%22%20as%3D%22geometry%22%3E%3CmxPoint%20x%3D%22-240%22%20y%3D%22320%22%20as%3D%22sourcePoint%22%2F%3E%3CmxPoint%20x%3D%22-230%22%20y%3D%22250%22%20as%3D%22targetPoint%22%2F%3E%3C%2FmxGeometry%3E%3C%2FmxCell%3E%3C%2Froot%3E%3C%2FmxGraphModel%3E&lt;/span&gt;" style="shape=rhombus;perimeter=rhombusPerimeter;whiteSpace=wrap;html=1;align=center;" vertex="1" parent="1">
          <mxGeometry x="-70" y="310" width="120" height="60" as="geometry" />
        </mxCell>
        <mxCell id="AYHpRo52h9jCzfwv4n32-53" value="" style="endArrow=none;html=1;rounded=0;exitX=1;exitY=0.5;exitDx=0;exitDy=0;entryX=0;entryY=0.5;entryDx=0;entryDy=0;" edge="1" parent="1" source="AYHpRo52h9jCzfwv4n32-42" target="AYHpRo52h9jCzfwv4n32-52">
          <mxGeometry relative="1" as="geometry">
            <mxPoint x="-220" y="340" as="sourcePoint" />
            <mxPoint x="-210" y="270" as="targetPoint" />
          </mxGeometry>
        </mxCell>
        <mxCell id="AYHpRo52h9jCzfwv4n32-54" value="" style="endArrow=none;html=1;rounded=0;exitX=1;exitY=0.5;exitDx=0;exitDy=0;entryX=0;entryY=0.5;entryDx=0;entryDy=0;" edge="1" parent="1" source="AYHpRo52h9jCzfwv4n32-52" target="AYHpRo52h9jCzfwv4n32-17">
          <mxGeometry relative="1" as="geometry">
            <mxPoint x="-210" y="350" as="sourcePoint" />
            <mxPoint x="-200" y="280" as="targetPoint" />
          </mxGeometry>
        </mxCell>
        <mxCell id="AYHpRo52h9jCzfwv4n32-55" value="" style="endArrow=none;html=1;rounded=0;exitX=0.5;exitY=1;exitDx=0;exitDy=0;" edge="1" parent="1" source="AYHpRo52h9jCzfwv4n32-52" target="AYHpRo52h9jCzfwv4n32-56">
          <mxGeometry relative="1" as="geometry">
            <mxPoint x="-200" y="360" as="sourcePoint" />
            <mxPoint x="-10" y="510" as="targetPoint" />
          </mxGeometry>
        </mxCell>
        <mxCell id="AYHpRo52h9jCzfwv4n32-56" value="Parentesco" style="ellipse;whiteSpace=wrap;html=1;align=center;" vertex="1" parent="1">
          <mxGeometry x="-60" y="490" width="100" height="40" as="geometry" />
        </mxCell>
        <mxCell id="AYHpRo52h9jCzfwv4n32-57" value="1,1" style="text;html=1;align=center;verticalAlign=middle;resizable=0;points=[];autosize=1;strokeColor=none;fillColor=none;" vertex="1" parent="1">
          <mxGeometry x="120" y="308" width="40" height="30" as="geometry" />
        </mxCell>
        <mxCell id="AYHpRo52h9jCzfwv4n32-58" value="0,N" style="text;html=1;align=center;verticalAlign=middle;resizable=0;points=[];autosize=1;strokeColor=none;fillColor=none;" vertex="1" parent="1">
          <mxGeometry x="-140" y="308" width="40" height="30" as="geometry" />
        </mxCell>
        <mxCell id="AYHpRo52h9jCzfwv4n32-60" value="Localidade" style="whiteSpace=wrap;html=1;align=center;" vertex="1" parent="1">
          <mxGeometry x="1000" y="140" width="100" height="40" as="geometry" />
        </mxCell>
        <mxCell id="AYHpRo52h9jCzfwv4n32-62" value="Possui" style="shape=rhombus;perimeter=rhombusPerimeter;whiteSpace=wrap;html=1;align=center;" vertex="1" parent="1">
          <mxGeometry x="990" y="230" width="120" height="60" as="geometry" />
        </mxCell>
        <mxCell id="AYHpRo52h9jCzfwv4n32-63" value="Possui" style="shape=rhombus;perimeter=rhombusPerimeter;whiteSpace=wrap;html=1;align=center;" vertex="1" parent="1">
          <mxGeometry x="990" y="10" width="120" height="60" as="geometry" />
        </mxCell>
        <mxCell id="AYHpRo52h9jCzfwv4n32-64" value="" style="endArrow=none;html=1;rounded=0;exitX=0.5;exitY=1;exitDx=0;exitDy=0;entryX=0.66;entryY=-0.075;entryDx=0;entryDy=0;entryPerimeter=0;" edge="1" parent="1" source="AYHpRo52h9jCzfwv4n32-62" target="AYHpRo52h9jCzfwv4n32-35">
          <mxGeometry relative="1" as="geometry">
            <mxPoint x="958" y="481" as="sourcePoint" />
            <mxPoint x="1050" y="330" as="targetPoint" />
          </mxGeometry>
        </mxCell>
        <mxCell id="AYHpRo52h9jCzfwv4n32-65" value="" style="endArrow=none;html=1;rounded=0;exitX=0;exitY=0.5;exitDx=0;exitDy=0;entryX=1;entryY=0.5;entryDx=0;entryDy=0;" edge="1" parent="1" source="AYHpRo52h9jCzfwv4n32-63" target="AYHpRo52h9jCzfwv4n32-36">
          <mxGeometry relative="1" as="geometry">
            <mxPoint x="598" y="581" as="sourcePoint" />
            <mxPoint x="630" y="490" as="targetPoint" />
          </mxGeometry>
        </mxCell>
        <mxCell id="AYHpRo52h9jCzfwv4n32-66" value="" style="endArrow=none;html=1;rounded=0;exitX=0.5;exitY=0;exitDx=0;exitDy=0;entryX=0.5;entryY=1;entryDx=0;entryDy=0;" edge="1" parent="1" source="AYHpRo52h9jCzfwv4n32-60" target="AYHpRo52h9jCzfwv4n32-63">
          <mxGeometry relative="1" as="geometry">
            <mxPoint x="978" y="501" as="sourcePoint" />
            <mxPoint x="1010" y="410" as="targetPoint" />
          </mxGeometry>
        </mxCell>
        <mxCell id="AYHpRo52h9jCzfwv4n32-67" value="" style="endArrow=none;html=1;rounded=0;exitX=0.5;exitY=1;exitDx=0;exitDy=0;" edge="1" parent="1" source="AYHpRo52h9jCzfwv4n32-60">
          <mxGeometry relative="1" as="geometry">
            <mxPoint x="1060" y="300" as="sourcePoint" />
            <mxPoint x="1050" y="230" as="targetPoint" />
          </mxGeometry>
        </mxCell>
        <mxCell id="AYHpRo52h9jCzfwv4n32-68" value="Gerencia" style="shape=rhombus;perimeter=rhombusPerimeter;whiteSpace=wrap;html=1;align=center;" vertex="1" parent="1">
          <mxGeometry x="190" y="102" width="120" height="60" as="geometry" />
        </mxCell>
        <mxCell id="AYHpRo52h9jCzfwv4n32-70" value="Gerente" style="whiteSpace=wrap;html=1;align=center;" vertex="1" parent="1">
          <mxGeometry x="20" y="111" width="100" height="40" as="geometry" />
        </mxCell>
        <mxCell id="AYHpRo52h9jCzfwv4n32-72" value="" style="endArrow=none;html=1;rounded=0;exitX=0.5;exitY=1;exitDx=0;exitDy=0;entryX=0.5;entryY=0;entryDx=0;entryDy=0;" edge="1" parent="1" source="AYHpRo52h9jCzfwv4n32-70" target="AYHpRo52h9jCzfwv4n32-17">
          <mxGeometry relative="1" as="geometry">
            <mxPoint x="305" y="436" as="sourcePoint" />
            <mxPoint x="270" y="370" as="targetPoint" />
          </mxGeometry>
        </mxCell>
        <mxCell id="AYHpRo52h9jCzfwv4n32-73" value="" style="endArrow=none;html=1;rounded=0;exitX=1;exitY=0.5;exitDx=0;exitDy=0;entryX=0;entryY=0.5;entryDx=0;entryDy=0;" edge="1" parent="1" source="AYHpRo52h9jCzfwv4n32-70" target="AYHpRo52h9jCzfwv4n32-68">
          <mxGeometry relative="1" as="geometry">
            <mxPoint x="420" y="350" as="sourcePoint" />
            <mxPoint x="270" y="350" as="targetPoint" />
          </mxGeometry>
        </mxCell>
        <mxCell id="AYHpRo52h9jCzfwv4n32-74" value="" style="endArrow=none;html=1;rounded=0;exitX=1;exitY=0.5;exitDx=0;exitDy=0;entryX=0;entryY=0.5;entryDx=0;entryDy=0;" edge="1" parent="1" source="AYHpRo52h9jCzfwv4n32-68" target="AYHpRo52h9jCzfwv4n32-36">
          <mxGeometry relative="1" as="geometry">
            <mxPoint x="470" y="330" as="sourcePoint" />
            <mxPoint x="460" y="157" as="targetPoint" />
          </mxGeometry>
        </mxCell>
        <mxCell id="AYHpRo52h9jCzfwv4n32-75" value="" style="endArrow=none;html=1;rounded=0;entryX=0.5;entryY=1;entryDx=0;entryDy=0;exitX=0.5;exitY=0;exitDx=0;exitDy=0;" edge="1" parent="1" source="AYHpRo52h9jCzfwv4n32-76" target="AYHpRo52h9jCzfwv4n32-68">
          <mxGeometry relative="1" as="geometry">
            <mxPoint x="330" y="240" as="sourcePoint" />
            <mxPoint x="469" y="158" as="targetPoint" />
          </mxGeometry>
        </mxCell>
        <mxCell id="AYHpRo52h9jCzfwv4n32-76" value="DataInicio" style="ellipse;whiteSpace=wrap;html=1;align=center;" vertex="1" parent="1">
          <mxGeometry x="199" y="220" width="100" height="40" as="geometry" />
        </mxCell>
        <mxCell id="AYHpRo52h9jCzfwv4n32-77" value="Controla" style="shape=rhombus;perimeter=rhombusPerimeter;whiteSpace=wrap;html=1;align=center;" vertex="1" parent="1">
          <mxGeometry x="680" y="160" width="120" height="60" as="geometry" />
        </mxCell>
        <mxCell id="AYHpRo52h9jCzfwv4n32-78" value="" style="endArrow=none;html=1;rounded=0;entryX=1;entryY=1;entryDx=0;entryDy=0;" edge="1" parent="1" source="AYHpRo52h9jCzfwv4n32-77" target="AYHpRo52h9jCzfwv4n32-36">
          <mxGeometry relative="1" as="geometry">
            <mxPoint x="470" y="220" as="sourcePoint" />
            <mxPoint x="469" y="158" as="targetPoint" />
          </mxGeometry>
        </mxCell>
        <mxCell id="AYHpRo52h9jCzfwv4n32-79" value="" style="endArrow=none;html=1;rounded=0;exitX=0;exitY=0;exitDx=0;exitDy=0;entryX=1;entryY=0.5;entryDx=0;entryDy=0;" edge="1" parent="1" source="AYHpRo52h9jCzfwv4n32-35" target="AYHpRo52h9jCzfwv4n32-77">
          <mxGeometry relative="1" as="geometry">
            <mxPoint x="751" y="242" as="sourcePoint" />
            <mxPoint x="910" y="170" as="targetPoint" />
          </mxGeometry>
        </mxCell>
        <mxCell id="AYHpRo52h9jCzfwv4n32-84" value="TrabalhaEm" style="shape=rhombus;perimeter=rhombusPerimeter;whiteSpace=wrap;html=1;align=center;" vertex="1" parent="1">
          <mxGeometry x="500" y="410" width="120" height="60" as="geometry" />
        </mxCell>
        <mxCell id="AYHpRo52h9jCzfwv4n32-86" value="" style="endArrow=none;html=1;rounded=0;exitX=1;exitY=0.5;exitDx=0;exitDy=0;entryX=0;entryY=0.5;entryDx=0;entryDy=0;" edge="1" parent="1" source="AYHpRo52h9jCzfwv4n32-17" target="AYHpRo52h9jCzfwv4n32-84">
          <mxGeometry relative="1" as="geometry">
            <mxPoint x="259" y="230" as="sourcePoint" />
            <mxPoint x="480" y="380" as="targetPoint" />
          </mxGeometry>
        </mxCell>
        <mxCell id="AYHpRo52h9jCzfwv4n32-89" value="" style="endArrow=none;html=1;rounded=0;exitX=0;exitY=0.5;exitDx=0;exitDy=0;entryX=1;entryY=0.5;entryDx=0;entryDy=0;" edge="1" parent="1" source="AYHpRo52h9jCzfwv4n32-35" target="AYHpRo52h9jCzfwv4n32-84">
          <mxGeometry relative="1" as="geometry">
            <mxPoint x="280" y="360" as="sourcePoint" />
            <mxPoint x="410" y="360" as="targetPoint" />
          </mxGeometry>
        </mxCell>
        <mxCell id="AYHpRo52h9jCzfwv4n32-90" value="" style="endArrow=none;html=1;rounded=0;entryX=0.5;entryY=1;entryDx=0;entryDy=0;exitX=0.5;exitY=0;exitDx=0;exitDy=0;" edge="1" parent="1" source="AYHpRo52h9jCzfwv4n32-91" target="AYHpRo52h9jCzfwv4n32-84">
          <mxGeometry relative="1" as="geometry">
            <mxPoint x="470" y="440" as="sourcePoint" />
            <mxPoint x="420" y="350" as="targetPoint" />
          </mxGeometry>
        </mxCell>
        <mxCell id="AYHpRo52h9jCzfwv4n32-91" value="HorasTrabalhadas" style="ellipse;whiteSpace=wrap;html=1;align=center;" vertex="1" parent="1">
          <mxGeometry x="510" y="540" width="100" height="40" as="geometry" />
        </mxCell>
        <mxCell id="AYHpRo52h9jCzfwv4n32-93" value="TrabalhaEm" style="shape=rhombus;perimeter=rhombusPerimeter;whiteSpace=wrap;html=1;align=center;" vertex="1" parent="1">
          <mxGeometry x="405" y="230" width="120" height="60" as="geometry" />
        </mxCell>
        <mxCell id="AYHpRo52h9jCzfwv4n32-94" value="" style="endArrow=none;html=1;rounded=0;exitX=1;exitY=0;exitDx=0;exitDy=0;entryX=0.2;entryY=0.75;entryDx=0;entryDy=0;entryPerimeter=0;" edge="1" parent="1" source="AYHpRo52h9jCzfwv4n32-17" target="AYHpRo52h9jCzfwv4n32-93">
          <mxGeometry relative="1" as="geometry">
            <mxPoint x="270" y="350" as="sourcePoint" />
            <mxPoint x="420" y="370" as="targetPoint" />
          </mxGeometry>
        </mxCell>
        <mxCell id="AYHpRo52h9jCzfwv4n32-95" value="" style="endArrow=none;html=1;rounded=0;exitX=0.6;exitY=1;exitDx=0;exitDy=0;entryX=0.5;entryY=0;entryDx=0;entryDy=0;exitPerimeter=0;" edge="1" parent="1" source="AYHpRo52h9jCzfwv4n32-36" target="AYHpRo52h9jCzfwv4n32-93">
          <mxGeometry relative="1" as="geometry">
            <mxPoint x="280" y="360" as="sourcePoint" />
            <mxPoint x="430" y="380" as="targetPoint" />
          </mxGeometry>
        </mxCell>
        <mxCell id="AYHpRo52h9jCzfwv4n32-96" value="Supervisor" style="whiteSpace=wrap;html=1;align=center;" vertex="1" parent="1">
          <mxGeometry x="510" y="320" width="100" height="40" as="geometry" />
        </mxCell>
        <mxCell id="AYHpRo52h9jCzfwv4n32-97" value="" style="endArrow=none;html=1;rounded=0;exitX=0;exitY=0.5;exitDx=0;exitDy=0;entryX=1;entryY=0.25;entryDx=0;entryDy=0;" edge="1" parent="1" source="AYHpRo52h9jCzfwv4n32-96" target="AYHpRo52h9jCzfwv4n32-17">
          <mxGeometry relative="1" as="geometry">
            <mxPoint x="880" y="390" as="sourcePoint" />
            <mxPoint x="630" y="450" as="targetPoint" />
          </mxGeometry>
        </mxCell>
        <mxCell id="AYHpRo52h9jCzfwv4n32-98" value="" style="endArrow=none;html=1;rounded=0;exitX=1;exitY=0.5;exitDx=0;exitDy=0;entryX=0.067;entryY=0.567;entryDx=0;entryDy=0;entryPerimeter=0;" edge="1" parent="1" source="AYHpRo52h9jCzfwv4n32-96" target="AYHpRo52h9jCzfwv4n32-99">
          <mxGeometry relative="1" as="geometry">
            <mxPoint x="520" y="350" as="sourcePoint" />
            <mxPoint x="270" y="340" as="targetPoint" />
          </mxGeometry>
        </mxCell>
        <mxCell id="AYHpRo52h9jCzfwv4n32-99" value="Supevisiona" style="shape=rhombus;perimeter=rhombusPerimeter;whiteSpace=wrap;html=1;align=center;" vertex="1" parent="1">
          <mxGeometry x="740" y="310" width="120" height="60" as="geometry" />
        </mxCell>
        <mxCell id="AYHpRo52h9jCzfwv4n32-101" value="" style="endArrow=none;html=1;rounded=0;entryX=0;entryY=0.25;entryDx=0;entryDy=0;" edge="1" parent="1" target="AYHpRo52h9jCzfwv4n32-35">
          <mxGeometry relative="1" as="geometry">
            <mxPoint x="860" y="340" as="sourcePoint" />
            <mxPoint x="758" y="354" as="targetPoint" />
          </mxGeometry>
        </mxCell>
        <mxCell id="AYHpRo52h9jCzfwv4n32-105" value="1,1" style="text;html=1;align=center;verticalAlign=middle;resizable=0;points=[];autosize=1;strokeColor=none;fillColor=none;" vertex="1" parent="1">
          <mxGeometry x="110" y="110" width="40" height="30" as="geometry" />
        </mxCell>
        <mxCell id="AYHpRo52h9jCzfwv4n32-106" value="1,1" style="text;html=1;align=center;verticalAlign=middle;resizable=0;points=[];autosize=1;strokeColor=none;fillColor=none;" vertex="1" parent="1">
          <mxGeometry x="360" y="102" width="40" height="30" as="geometry" />
        </mxCell>
        <mxCell id="AYHpRo52h9jCzfwv4n32-107" value="1,1" style="text;html=1;align=center;verticalAlign=middle;resizable=0;points=[];autosize=1;strokeColor=none;fillColor=none;" vertex="1" parent="1">
          <mxGeometry x="430" y="150" width="40" height="30" as="geometry" />
        </mxCell>
        <mxCell id="AYHpRo52h9jCzfwv4n32-108" value="0,N" style="text;html=1;align=center;verticalAlign=middle;resizable=0;points=[];autosize=1;strokeColor=none;fillColor=none;" vertex="1" parent="1">
          <mxGeometry x="250" y="290" width="40" height="30" as="geometry" />
        </mxCell>
        <mxCell id="AYHpRo52h9jCzfwv4n32-109" value="0,N" style="text;html=1;align=center;verticalAlign=middle;resizable=0;points=[];autosize=1;strokeColor=none;fillColor=none;" vertex="1" parent="1">
          <mxGeometry x="310" y="340" width="40" height="30" as="geometry" />
        </mxCell>
        <mxCell id="AYHpRo52h9jCzfwv4n32-110" value="0,N" style="text;html=1;align=center;verticalAlign=middle;resizable=0;points=[];autosize=1;strokeColor=none;fillColor=none;" vertex="1" parent="1">
          <mxGeometry x="920" y="370" width="40" height="30" as="geometry" />
        </mxCell>
        <mxCell id="AYHpRo52h9jCzfwv4n32-112" value="0,N" style="text;html=1;align=center;verticalAlign=middle;resizable=0;points=[];autosize=1;strokeColor=none;fillColor=none;" vertex="1" parent="1">
          <mxGeometry x="970" y="310" width="40" height="30" as="geometry" />
        </mxCell>
        <mxCell id="AYHpRo52h9jCzfwv4n32-113" value="1,1" style="text;html=1;align=center;verticalAlign=middle;resizable=0;points=[];autosize=1;strokeColor=none;fillColor=none;" vertex="1" parent="1">
          <mxGeometry x="520" y="130" width="40" height="30" as="geometry" />
        </mxCell>
        <mxCell id="AYHpRo52h9jCzfwv4n32-114" value="1,N" style="text;html=1;align=center;verticalAlign=middle;resizable=0;points=[];autosize=1;strokeColor=none;fillColor=none;" vertex="1" parent="1">
          <mxGeometry x="1010" y="110" width="40" height="30" as="geometry" />
        </mxCell>
        <mxCell id="AYHpRo52h9jCzfwv4n32-115" value="1,1" style="text;html=1;align=center;verticalAlign=middle;resizable=0;points=[];autosize=1;strokeColor=none;fillColor=none;" vertex="1" parent="1">
          <mxGeometry x="510" y="100" width="40" height="30" as="geometry" />
        </mxCell>
        <mxCell id="AYHpRo52h9jCzfwv4n32-116" value="1,1" style="text;html=1;align=center;verticalAlign=middle;resizable=0;points=[];autosize=1;strokeColor=none;fillColor=none;" vertex="1" parent="1">
          <mxGeometry x="610" y="310" width="40" height="30" as="geometry" />
        </mxCell>
        <mxCell id="AYHpRo52h9jCzfwv4n32-117" value="1,1" style="text;html=1;align=center;verticalAlign=middle;resizable=0;points=[];autosize=1;strokeColor=none;fillColor=none;" vertex="1" parent="1">
          <mxGeometry x="930" y="320" width="40" height="30" as="geometry" />
        </mxCell>
        <mxCell id="AYHpRo52h9jCzfwv4n32-118" value="1,1" style="text;html=1;align=center;verticalAlign=middle;resizable=0;points=[];autosize=1;strokeColor=none;fillColor=none;" vertex="1" parent="1">
          <mxGeometry x="1020" y="180" width="40" height="30" as="geometry" />
        </mxCell>
        <mxCell id="AYHpRo52h9jCzfwv4n32-119" value="1,1" style="text;html=1;align=center;verticalAlign=middle;resizable=0;points=[];autosize=1;strokeColor=none;fillColor=none;" vertex="1" parent="1">
          <mxGeometry x="1040" y="308" width="40" height="30" as="geometry" />
        </mxCell>
        <mxCell id="AYHpRo52h9jCzfwv4n32-120" value="&lt;u&gt;Id&lt;/u&gt;" style="ellipse;whiteSpace=wrap;html=1;align=center;" vertex="1" parent="1">
          <mxGeometry x="1140" y="92" width="100" height="40" as="geometry" />
        </mxCell>
        <mxCell id="AYHpRo52h9jCzfwv4n32-121" value="Endereço" style="ellipse;whiteSpace=wrap;html=1;align=center;" vertex="1" parent="1">
          <mxGeometry x="1140" y="175" width="100" height="40" as="geometry" />
        </mxCell>
        <mxCell id="AYHpRo52h9jCzfwv4n32-123" value="" style="endArrow=none;html=1;rounded=0;exitX=1;exitY=1;exitDx=0;exitDy=0;entryX=0;entryY=0.5;entryDx=0;entryDy=0;" edge="1" parent="1" source="AYHpRo52h9jCzfwv4n32-60" target="AYHpRo52h9jCzfwv4n32-121">
          <mxGeometry relative="1" as="geometry">
            <mxPoint x="1060" y="190" as="sourcePoint" />
            <mxPoint x="1060" y="240" as="targetPoint" />
          </mxGeometry>
        </mxCell>
        <mxCell id="AYHpRo52h9jCzfwv4n32-124" value="" style="endArrow=none;html=1;rounded=0;exitX=1;exitY=0;exitDx=0;exitDy=0;entryX=0.02;entryY=0.75;entryDx=0;entryDy=0;entryPerimeter=0;" edge="1" parent="1" source="AYHpRo52h9jCzfwv4n32-60" target="AYHpRo52h9jCzfwv4n32-120">
          <mxGeometry relative="1" as="geometry">
            <mxPoint x="1110" y="190" as="sourcePoint" />
            <mxPoint x="1150" y="205" as="targetPoint" />
          </mxGeometry>
        </mxCell>
        <mxCell id="AYHpRo52h9jCzfwv4n32-126" value="&lt;font style=&quot;font-size: 20px;&quot;&gt;C&lt;/font&gt;" style="text;html=1;align=center;verticalAlign=middle;resizable=0;points=[];autosize=1;strokeColor=none;fillColor=none;rotation=90;fontSize=20;" vertex="1" parent="1">
          <mxGeometry x="120" y="200" width="40" height="40" as="geometry" />
        </mxCell>
      </root>
    </mxGraphModel>
  </diagram>
</mxfile>
